<svg width="182" height="158" viewBox="0 0 182 158" fill="none" xmlns="http://www.w3.org/2000/svg">
<path d="M182 158C56.6442 132.649 31.9098 85.8088 0 4.34034e-06H182V158Z" fill="#0D9D58"/>
<path fill-rule="evenodd" clip-rule="evenodd" d="M109.596 77.0168L98.6984 75.5198C97.2087 75.3394 95.832 76.3553 95.6517 77.845C95.4713 79.3347 96.4873 80.7114 97.977 80.8918L108.874 82.3888C110.364 82.5691 111.741 81.5532 111.921 80.0635C112.142 78.6053 111.054 77.2377 109.596 77.0168Z" fill="white" fill-opacity="0.5" stroke="#0D9D58" stroke-width="0.666667" stroke-miterlimit="10"/>
<path fill-rule="evenodd" clip-rule="evenodd" d="M104.877 87.3636L100.74 77.1712C100.198 75.7719 98.5729 75.095 97.2142 75.6686C95.8149 76.2105 95.1381 77.8357 95.7116 79.1944L99.8482 89.3868C100.39 90.7861 102.015 91.4629 103.374 90.8894C104.773 90.3475 105.491 88.7539 104.877 87.3636Z" fill="white" fill-opacity="0.5" stroke="#0D9D58" stroke-width="0.666667" stroke-miterlimit="10"/>
<path fill-rule="evenodd" clip-rule="evenodd" d="M109.883 91.3223L120.781 92.8193C122.27 92.9996 123.327 94.4079 123.106 95.866C122.925 97.3557 121.517 98.4122 120.059 98.1913L109.162 96.6943C107.672 96.5139 106.615 95.1057 106.836 93.6475C107.017 92.1578 108.393 91.1419 109.883 91.3223Z" fill="white" fill-opacity="0.5" stroke="#0D9D58" stroke-width="0.666667" stroke-miterlimit="10"/>
<path fill-rule="evenodd" clip-rule="evenodd" d="M118.878 84.363L123.014 94.5554C123.556 95.9547 122.911 97.5393 121.512 98.0813C120.112 98.6232 118.528 97.9779 117.986 96.5785L113.849 86.3862C113.307 84.9869 113.953 83.4023 115.352 82.8604C116.711 82.2869 118.295 82.9321 118.878 84.363Z" fill="white" fill-opacity="0.5" stroke="#0D9D58" stroke-width="0.666667" stroke-miterlimit="10"/>
</svg>
