<svg width="265" height="176" viewBox="0 0 265 176" fill="none" xmlns="http://www.w3.org/2000/svg">
<g filter="url(#filter0_d_501_1064)">
<path d="M4 159C64.3286 150.305 98 200.5 141.5 124.684C220.5 17 231.297 56.922 261 1.52588e-05H4V159Z" fill="#EA4334" fill-opacity="0.9"/>
<path d="M100.822 78.4849H100.078C92.9808 75.3211 87.4227 69.8912 83.532 62.2809C83.5747 62.1527 83.5748 62.0244 83.5748 61.8534C82.6769 55.0127 82.3542 47.8063 82.8672 39.5974C82.8672 39.5974 82.5486 37.4833 81.9928 37.4405C81.4798 37.3978 80.9667 37.8253 80.924 38.3811C80.5392 44.5378 80.5819 50.78 81.0095 56.4236C80.1544 54.0293 79.3848 51.4213 78.7862 48.685C78.7862 48.6422 78.7435 48.5995 78.7435 48.514C79.0428 44.9226 79.5986 41.1602 80.4109 37.2268C80.5392 36.6709 80.1971 36.1579 79.6413 36.0296C79.0855 35.9014 78.5725 36.2434 78.4442 36.7992C77.8456 39.5783 77.4181 42.2718 77.0761 44.8371C76.905 44.9226 76.734 45.0936 76.6485 45.2646C75.6652 45.0936 74.6818 45.0936 73.6984 45.2219C73.6557 45.0508 73.5274 44.8798 73.3991 44.7943C73.0144 42.1008 72.4158 39.4072 71.6462 36.7137C71.4752 36.2006 70.9621 35.9014 70.4063 36.0296C69.8933 36.2006 69.594 36.7137 69.7223 37.2695C70.7484 40.8609 71.4325 44.495 71.7317 48.1292C71.7317 48.2147 71.7317 48.2574 71.7317 48.3429V48.3857C71.7317 48.4285 71.689 48.4712 71.689 48.5567C71.3469 52.4901 70.4491 56.167 68.9954 59.5874C69.594 53.6445 69.765 46.5473 69.5512 38.4239C69.5512 37.8681 69.0395 37.2001 68.4837 37.2001L68.0042 38.6385C68.3035 49.0706 67.4563 57.5779 66.3874 64.3332C66.3874 64.3759 66.3874 64.4614 66.3874 64.5042C62.9243 69.934 57.7937 74.5942 51.0385 78.4849L50.4795 78.6712H50L50 79.1507L50 80.1096H52.1929H64.9337H65.1048H67.157H67.3708H68.3541H73.6129H74.5963H75.6224H76.6057H81.6935H82.6769H82.9762H83.1044H85.1139H85.2849H98.7526H100.822C100.822 80.1096 100.822 79.5782 100.822 79.1507V78.4849ZM76.6913 59.4591C76.8195 61.2121 77.0333 62.8795 77.3326 64.5469C76.905 63.4353 76.5202 62.3237 76.1782 61.2548C76.3492 60.6563 76.5202 60.0577 76.6913 59.4591ZM73.7839 48.1719C73.7839 48.3429 73.8267 48.514 73.8267 48.685C73.8267 48.856 73.8695 49.027 73.8695 49.198H76.4347C76.2637 51.9343 75.8362 54.7134 75.1093 57.5779C74.5108 55.1837 74.126 52.8749 73.9122 50.5662C73.8694 50.0959 73.8267 49.6256 73.8267 49.198C73.8267 49.027 73.8267 48.856 73.7839 48.685C73.7839 48.514 73.7839 48.3429 73.7839 48.1719ZM73.5702 59.4591C73.7412 60.0577 73.9122 60.6135 74.0832 61.2121C73.6129 62.7085 73.0571 64.2049 72.4586 65.7013C72.9289 63.6491 73.3136 61.5541 73.5702 59.4591ZM65.7888 78.4849H54.9292C63.2236 73.0978 68.8244 66.3854 71.689 58.433C70.9621 65.1455 68.9954 71.8152 65.7888 78.4849ZM74.8528 78.4849C74.9811 77.5443 75.0666 76.6037 75.1521 75.5776C75.2376 76.561 75.3231 77.5443 75.4514 78.4849H74.8528ZM82.1211 78.4849H81.6508H76.4347C76.0072 74.7225 75.7079 70.4898 75.6652 65.6585C75.6652 65.6585 75.6651 65.6158 75.6224 65.6158C75.6224 65.2738 75.6224 64.889 75.6224 64.5469C75.6224 63.9911 75.6224 63.4781 75.6224 62.9223C75.6224 62.3664 75.6224 61.8534 75.6224 61.2976C75.6224 61.0411 75.4086 60.8273 75.1521 60.7845C74.8956 60.7845 74.6818 60.9983 74.6818 61.2976C74.6818 61.8534 74.6818 62.4092 74.6818 62.965C74.6818 63.4781 74.6818 64.0339 74.6818 64.5469C74.6818 64.889 74.6818 65.231 74.6818 65.573C74.6818 65.573 74.6818 65.6158 74.639 65.6158C74.5535 70.4471 74.297 74.6798 73.8695 78.4849H68.5251H68.2258H68.0121C68.2258 78.0146 73.0999 69.6347 74.6818 65.6158C74.6818 65.2738 74.6818 64.889 74.6818 64.5469C74.6818 63.9911 74.6818 63.4781 74.6818 62.9223C74.6818 62.3664 74.6818 61.8534 74.6818 61.2976C74.6818 61.0411 74.8956 60.7845 75.1948 60.7845C75.4514 60.7845 75.7079 60.9983 75.7079 61.2976C75.7079 61.8106 75.7079 62.3237 75.7079 62.8367C75.7079 63.4353 75.7079 63.9911 75.7079 64.5469C75.7079 64.9317 75.7079 65.3165 75.7079 65.6585C77.1616 69.5492 82.0783 78.3994 82.1211 78.4849ZM84.5153 78.4849H84.4298C84.1733 78.0574 83.9595 77.6298 83.7458 77.2023C80.3682 70.7891 78.6152 63.4781 78.5297 55.1837C82.0356 66.0006 87.8075 73.7819 95.7598 78.4849H84.5153Z" fill="white" fill-opacity="0.44"/>
</g>
<defs>
<filter id="filter0_d_501_1064" x="0" y="0" width="265" height="175.334" filterUnits="userSpaceOnUse" color-interpolation-filters="sRGB">
<feFlood flood-opacity="0" result="BackgroundImageFix"/>
<feColorMatrix in="SourceAlpha" type="matrix" values="0 0 0 0 0 0 0 0 0 0 0 0 0 0 0 0 0 0 127 0" result="hardAlpha"/>
<feOffset dy="4"/>
<feGaussianBlur stdDeviation="2"/>
<feComposite in2="hardAlpha" operator="out"/>
<feColorMatrix type="matrix" values="0 0 0 0 0 0 0 0 0 0 0 0 0 0 0 0 0 0 0.25 0"/>
<feBlend mode="normal" in2="BackgroundImageFix" result="effect1_dropShadow_501_1064"/>
<feBlend mode="normal" in="SourceGraphic" in2="effect1_dropShadow_501_1064" result="shape"/>
</filter>
</defs>
</svg>
