<svg width="220" height="159" viewBox="0 0 220 159" fill="none" xmlns="http://www.w3.org/2000/svg">
<path d="M1.00136e-05 0.000155785C151.529 25.5114 181.428 72.6481 220 159H1.00136e-05V0.000155785Z" fill="#4285F4"/>
<path d="M84.2972 74.2257L69.4294 66.1889C68.9726 65.9419 68.3967 66.1137 68.1498 66.5705L66.2865 70.0175C66.0396 70.4744 66.2113 71.0502 66.6681 71.2971L73.9775 75.2482L84.1692 74.2639C84.1917 74.2223 84.2557 74.2032 84.2972 74.2257Z" fill="white" fill-opacity="0.22"/>
<path d="M69.0508 84.6601L61.6169 80.6417C61.1601 80.3948 60.5842 80.5665 60.3373 81.0233L58.474 84.4704C58.2271 84.9272 58.3988 85.503 58.8556 85.7499L73.8896 93.8765C73.8065 93.8316 73.7459 93.7452 73.6853 93.6587L69.0508 84.6601Z" fill="white" fill-opacity="0.22"/>
<path d="M84.8772 75.2379L74.6854 76.2222L71.2316 76.5555C71.5482 76.5656 71.8389 76.7228 72.0622 77.0045L74.4149 81.3888L83.1003 80.6099C83.1419 80.6324 83.1643 80.5908 83.2058 80.6132L83.2698 80.5942C83.5033 80.5594 83.7177 80.4606 83.8714 80.2754C83.8939 80.2339 83.9164 80.1923 83.9388 80.1508C83.9613 80.1093 83.9612 80.1093 83.9837 80.0678L85.8245 76.6622C85.8694 76.5792 85.9143 76.4961 85.9177 76.3906C85.9402 76.3491 85.9211 76.2852 85.9435 76.2436C85.966 76.2021 85.9469 76.1381 85.9469 76.1381C85.9693 76.0965 85.9278 76.0741 85.9087 76.0101C85.8515 75.8182 85.7302 75.6454 85.5866 75.514C85.545 75.4916 85.5035 75.4691 85.462 75.4467L85.0467 75.2222C84.9412 75.2188 84.8997 75.1964 84.8772 75.2379Z" fill="white" fill-opacity="0.22"/>
<path d="M71.2322 76.5547C70.8741 76.5222 70.5093 76.7007 70.3073 77.0744L68.5114 80.3969C68.3318 80.7291 68.3632 81.0681 68.5416 81.4329L70.2534 84.7194L74.9103 93.6766C74.971 93.763 75.054 93.8079 75.1146 93.8943L75.3638 94.029C75.8206 94.2759 76.3359 94.0178 76.5828 93.5609L78.4842 90.2419L78.5067 90.2004C78.6862 89.8681 78.6548 89.5291 78.4764 89.1643L74.3705 81.4711L72.0179 77.0868C71.8394 76.722 71.5072 76.5424 71.2322 76.5547Z" fill="white" fill-opacity="0.22"/>
<path d="M81.324 95.9089L77.328 103.301C77.1709 103.592 76.787 103.706 76.4963 103.549L50.5399 89.5186C50.2492 89.3615 50.1347 88.9777 50.2918 88.6869L54.2878 81.2945C54.4449 81.0038 54.8288 80.8894 55.1195 81.0465L57.4037 82.2812C57.6944 82.4383 57.8089 82.8222 57.6517 83.1129L55.4966 87.0998C55.3395 87.3905 55.4539 87.7744 55.7447 87.9316L74.9317 98.3031C75.2224 98.4602 75.6063 98.3457 75.7634 98.055L77.9185 94.0681C78.0757 93.7774 78.4595 93.6629 78.7502 93.82L81.0759 95.0772C81.3666 95.2343 81.5036 95.5767 81.324 95.9089Z" fill="white" fill-opacity="0.22"/>
<path d="M63.1548 64.8907L67.1282 57.5399C67.2854 57.2492 67.6693 57.1347 67.96 57.2918L93.9164 71.3225C94.2071 71.4797 94.3216 71.8636 94.1645 72.1543L90.191 79.5051C90.0338 79.7958 89.6499 79.9103 89.3592 79.7532L87.075 78.5185C86.7843 78.3613 86.6699 77.9775 86.827 77.6868L88.9821 73.6999C89.1393 73.4091 89.0248 73.0252 88.7341 72.8681L69.5471 62.4966C69.2564 62.3395 68.8725 62.454 68.7153 62.7447L66.5602 66.7316C66.4031 67.0223 66.0192 67.1368 65.7285 66.9796L63.4028 65.7225C63.1121 65.5654 62.9976 65.1815 63.1548 64.8907Z" fill="white" fill-opacity="0.22"/>
</svg>
